/* XPM */
static char *_9cb8efb31e94d2bccce163d4adcfa4b46nGNlq5DpYv8HFu[] = {
/* columns rows colors chars-per-pixel */
"64 64 140 2 ",
"   c None",
".  c #0F2B13",
"X  c #113416",
"o  c #133817",
"O  c #133A18",
"+  c #15441D",
"@  c #164A1E",
"#  c #184A1F",
"$  c #194C21",
"%  c #175121",
"&  c #1A5322",
"*  c #1D5E27",
"=  c #1E5F28",
"-  c #1C6127",
";  c #1E6429",
":  c #1F6A2B",
">  c #1F722D",
",  c #20672A",
"<  c #216E2D",
"1  c #22732F",
"2  c #227A2F",
"3  c #227630",
"4  c #237B32",
"5  c #258535",
"6  c #278A36",
"7  c #278C38",
"8  c #288E39",
"9  c #29933B",
"0  c #2C9C3E",
"q  c #2DA23F",
"w  c #2DA03F",
"e  c #2DA13F",
"r  c #2DA240",
"t  c #2DA340",
"y  c #2EA340",
"u  c #2DA440",
"i  c #2DA540",
"p  c #2EA540",
"a  c #2EA541",
"s  c #2EA641",
"d  c #2FA641",
"f  c #2EA741",
"g  c #2EA440",
"h  c #2EA841",
"j  c #2FA841",
"k  c #2EA842",
"l  c #2FA842",
"z  c #2FA942",
"x  c #2FAA42",
"c  c #2FAB42",
"v  c #2FAA43",
"b  c #2FAB43",
"n  c #2FAC43",
"m  c #2FA942",
"M  c #30AB43",
"N  c #30AC43",
"B  c #30AD43",
"V  c #30AD44",
"C  c #30AE44",
"Z  c #30AF44",
"A  c #30AC44",
"S  c #30B044",
"D  c #30B045",
"F  c #31B045",
"G  c #31B145",
"H  c #31B245",
"J  c #32B146",
"K  c #31B246",
"L  c #31B346",
"P  c #32B346",
"I  c #32B446",
"U  c #32B447",
"Y  c #33B447",
"T  c #32B547",
"R  c #32B647",
"E  c #32B747",
"W  c #31B246",
"Q  c #33B748",
"!  c #33B648",
"~  c #33B848",
"^  c #33B948",
"/  c #33BA48",
"(  c #33BA49",
")  c #34BA49",
"_  c #33BC49",
"`  c #34BC49",
"'  c #34BD49",
"]  c #34BC4A",
"[  c #34BD4A",
"{  c #34BE4A",
"}  c #34BF4A",
"|  c #35BF4A",
" . c #35BF4B",
".. c #34BC49",
"X. c #35C04A",
"o. c #34C04B",
"O. c #35C04B",
"+. c #35C14B",
"@. c #35C24B",
"#. c #35C24C",
"$. c #36C34C",
"%. c #36C34D",
"&. c #35C44C",
"*. c #36C44C",
"=. c #36C54D",
"-. c #36C64D",
";. c #36C74D",
":. c #37C74E",
">. c #36C44C",
",. c #37C84E",
"<. c #37C94E",
"1. c #37C94F",
"2. c #37CB4F",
"3. c #37CA4E",
"4. c #38CA4F",
"5. c #38CB4F",
"6. c #38CC4F",
"7. c #38CB4F",
"8. c #39CB50",
"9. c #38CC50",
"0. c #39CC50",
"q. c #38CD50",
"w. c #39CD51",
"e. c #39CE51",
"r. c #39CF51",
"t. c #3ACE51",
"y. c #3BCD52",
"u. c #3BCD53",
"i. c #3ACE52",
"p. c #3BCE52",
"a. c #3CCF53",
"s. c #3DCD54",
"d. c #3DCD55",
"f. c #3CCF54",
"g. c #3ACE51",
"h. c #3CD053",
"j. c #3CD054",
"k. c #3ED055",
"l. c #3ED056",
"z. c #3DD055",
/* pixels */
"                                                                                                                                ",
"                                                                                                                                ",
"                                                                                                                                ",
"                                                                                                                                ",
"    + @ % - : : > 1 : > > > > 2 2 > 5 5 2 5 5 5 6 6 6 7 7 7 6 5 5 5 2 2 1 > > > > > > > : > : ; ; - * % % @ + O                 ",
"  + * : 4 5 9 9 0 9 9 9 0 e w i n q q I q H I Y ^ ( [ [ O._ _ ^ H G V h q w 0 9 9 9 9 9 9 9 9 8 6 5 5 4 3 : ; &                 ",
"  $ ; 1 5 6 9 0 0 w w w i i h n q Y I I X._ ` [ O.=.=.<.<.5.&.[ ` ^ Y n M i i q r w w w u r 0 9 8 8 6 5 4 > : *                 ",
"    : 3 5 7 w q q q y i M B n G I I ^ _ X.@.$.*.<.r.r.r.r.6.6.5.&.O._ Y G V h h i u r u u u 0 0 9 9 8 6 4 3 : *                 ",
"    : 3 6 9 e d h h h h V V G Y Y ^ _ ` O.&.5.5.9.r.f.l.k.f.r.2.&.&.[ ` G D n h b h h i k k w 0 9 9 9 6 5 3 : *                 ",
"    : 4 5 9 0 i h h i h V V G Y Y ^ ` X.&.&.*.5.9.r.f.l.k.f.8.8.5.O.[ Y G G n h h h h h k r y 0 0 9 8 6 4 3 : ;                 ",
"    : 4 6 9 0 i i i h h n S G Y Y ` ` O.O.*.;.;.9.h.f.l.l.k.r.2.5.O.O.` Y n h B M i i M k k r 0 9 9 8 6 5 3 : ;                 ",
"    : 4 5 8 y i h h h i B S S Y Y ` ` O.&.&.;.5.9.r.f.l.k.j.r.2.:.=.[ Y G V V h M M i i k k r 0 0 9 8 5 5 3 : ;                 ",
"    : 4 5 9 y y M i i i B V G Y Y ` ` [ O.:.:.:.9.r.h.k.f.f.r.2.:.O.[ Y Y B h M h i i b i i r 0 0 9 8 8 5 3 : ;                 ",
"    : 3 5 8 0 y y i i y h V G G Y ` ` ~ [ O.%.:.9.9.r.f.d.f.8.:.:.O.[ Y G B M h i i y i y y w w 9 8 6 6 4 1 : -                 ",
"            $ $ & & & ; ; : : 1 1 1 3 3 4 4 4 5 5 5 5 5 5 5 5 5 4 4 4 1 1 < , , , = * & & & $ $ $ $ O X                         ",
"            + $ & & * : < 1 1 4 4 4 6 5 6 6 6 8 8 8 9 9 9 9 8 8 6 6 6 4 4 3 1 < < ; ; = = * & $ $ $ O .                         ",
"            $ & * , < 3 4 5 6 8 9 9 9 0 0 0 y y i h h n b b i y y w 9 9 9 6 5 5 4 3 3 < , ; = * $ $ $ .                         ",
"            & - ; < 3 4 6 8 9 0 w d d M M V G G Y ( ( _ [ ( ( Q V n n y 0 9 8 6 5 4 3 3 3 < < ; & & $ X                         ",
"            * ; < 3 4 6 9 9 w d M V G Y Y Q ( [ o.=.=.<.=.=.O._ ( Q J b k w 0 9 9 5 5 4 3 3 < , = * $ X                         ",
"            * : 3 4 5 6 9 0 y M V G ! ~ _ [ O.=.<.<.2.9.r.9.<.=.#.[ Q G b k 0 0 9 8 5 5 4 4 3 < ; = $ X                         ",
"            * , < 4 5 9 9 0 d V G Y ` [ _ O.=.<.9.9.h.j.j.r.9.<.#.#._ Q V b y 0 0 8 7 5 4 4 3 < ; * & X                         ",
"            * < 1 4 5 9 0 y d V G ` ` [ #.#.=.<.9.r.j.j.j.h.9.<.=.#._ Q J l y 0 9 8 7 5 5 4 3 < ; = & O                         ",
"            = : 3 4 5 9 9 i M V Y ^ ` [ O.&.=.<.9.r.j.l.j.j.r.9.:.#.[ Q J M y 0 0 8 7 5 5 4 4 < ; = & O                         ",
"            = : 3 4 5 9 0 y M J Y ^ [ O.O.&.<.<.9.r.j.k.k.j.9.9.:.#.[ Q Y M y 0 0 9 8 5 5 4 3 < , = & O                         ",
"            = : 1 4 5 9 0 y l V Y ^ ^ O.O.*.;.;.6.r.h.k.k.j.r.9.:.#.[ ~ G M i 0 0 9 6 5 5 4 4 < : = & O                         ",
"            = < 1 4 5 8 9 y l V I ^ ` ` O.*.;.5.6.h.h.k.k.j.9.9.:.=.[ ! G V y w 9 8 6 6 5 4 4 < ; ; & O                         ",
"            = : 3 4 6 9 0 y M J I ^ ` O.&.*.*.5.r.r.k.k.k.j.9.<.:.O.[ ~ G M d 0 0 9 8 6 5 4 4 < , = & O                         ",
"            = : 3 4 5 9 9 y d V I ^ ` X.O.*.*.;.9.r.f.k.k.j.r.9.=.=.O.Y G M d 0 9 9 6 5 4 4 4 < : = & O                         ",
"            = : 3 4 6 9 0 w l J I ^ ` X.O.&.;.5.9.r.f.k.l.j.r.9.=.#.[ ! G M d 0 0 9 6 6 5 4 4 1 , * $ O                         ",
"            = : 3 4 5 9 0 w l V Y Y ` X.O.&.;.;.9.r.f.k.k.j.9.2.5.:.[ ! J M y w 9 9 6 5 5 4 3 < , * & O                         ",
"            = : < 4 5 8 0 y l J Y ^ _ O.O.*.;.5.9.r.h.k.k.j.9.9.:.O.O.! Y M d 0 0 8 6 6 5 4 3 < , - & O                         ",
"            = , 3 4 5 9 9 w l J Y ^ _ ` O.&.;.;.9.h.h.k.l.j.9.9.:.=.[ ! V M d 0 9 9 6 6 4 4 4 < , * & O                         ",
"            = : 3 4 5 9 9 y M V I Y ` X.O.&.<.<.9.r.f.l.j.h.9.2.:.O.O.Y G M i 0 0 8 7 6 5 4 4 < ; = & O                         ",
"            = : 3 4 5 8 0 w M J I ` ` O.O.&.=.<.9.9.f.l.k.j.r.9.:.:.[ Y G B d 0 0 8 7 6 5 4 3 > ; ; & O                         ",
"            = , 3 4 6 9 0 w l V Y ` ` O.O.&.=.<.r.r.j.l.l.j.9.9.:.*.[ ` G M i 0 0 8 8 5 4 4 4 < : * & O                         ",
"            = : 3 4 5 9 9 y l J I Y [ O.O.&.=.<.9.r.j.l.l.j.9.2.:.O.O.Y G M d y 9 8 8 6 5 4 3 < ; = & O                         ",
"            = , 3 4 5 9 9 y l V I Y ` O.O.&.<.<.9.r.j.j.l.j.9.9.:.:.[ ! G M y w 9 9 8 5 5 4 4 < , = & o                         ",
"            = < < 4 5 9 0 y M V Y ^ ` X.O.=.=.<.r.r.j.k.l.j.j.9.:.#.O.! G M y w 9 9 8 6 5 4 3 < ; = & O                         ",
"            = , 3 4 5 9 9 y M V Y ^ ` X.o.=.2.<.9.h.j.k.l.j.9.9.:.#.[ ! V M y 0 9 9 8 5 4 4 4 < < = & O                         ",
"            = , 3 4 5 9 0 w l J Y ^ ` ` o.&.&.<.9.9.f.k.j.j.r.9.:.%. .! Y M y w 9 9 8 6 5 4 3 < , = & O                         ",
"            = : 3 4 5 8 0 w l J Y ^ ` X.O.&.&.5.r.r.j.l.l.j.9.9.:.$.[ Y J M y w 9 9 6 5 4 4 4 3 , * & O                         ",
"            = : 3 4 5 9 0 y l A G ^ ` X.O.&.<.;.9.r.j.j.l.j.9.2.:.$.O.! G M d w 9 9 8 5 5 4 3 < , - & O                         ",
"            = : 3 3 6 9 0 w d J Y ^ _ O.O.&.&.5.9.j.j.l.l.j.9.9.5.&.O.Y G M d w 0 8 6 5 5 4 4 < , * & O                         ",
"            = : 3 3 6 9 0 0 d Y Y ^ _ ` O.&.<.;.9.9.f.l.l.j.r.9.:.&.O.Y G M y 0 9 9 8 6 5 4 3 < , * & O                         ",
"            = : 3 4 6 8 0 e M B Y Y ` X.O.&.;.;.9.r.j.l.l.f.r.2.:.O.O.Y G B d 0 9 9 8 5 5 4 4 < , - & O                         ",
"            = : 3 4 6 8 9 0 M H I ` ` X.O.*.*.6.9.r.j.j.l.f.8.2.5.O.[ Y G B d e 9 9 8 5 5 4 4 < , * & O                         ",
"            = : 1 4 5 9 0 e M H I ` ` X.O.*.;.5.9.h.f.l.l.j.r.2.:.:.[ ` G M i 0 0 9 6 6 5 4 4 < , * & O                         ",
"            = : 3 4 5 9 0 e q H I Y ` O.O.*.;.;.9.r.f.l.l.j.r.2.:.O.[ Y G M y 0 9 9 8 5 4 4 4 < , * & O                         ",
"            = : 3 4 5 9 0 w d J Y ` ` [ O.*.;.5.6.r.h.k.l.j.r.2.:.=.O.! Y M y w 9 9 8 5 5 4 4 < , - & O                         ",
"            = : 3 4 5 9 0 w d J G ` ` [ O.*.*.5.6.r.k.k.l.j.r.2.:.#.O.! V M y 0 9 9 8 6 4 4 4 1 , * & O                         ",
"            = : 3 4 5 9 0 w d J P Y ` X.O.*.*.;.r.r.a.k.l.f.r.2.:.#.[ ! Y M y w 9 9 8 5 5 4 3 < , * & O                         ",
"            = , 1 4 6 8 0 w l J H ` ` O.&.*.;.5.r.r.f.k.l.f.8.2.:.%. .! V M y 0 9 9 6 5 5 4 3 1 , = & O                         ",
"            = : 3 4 5 9 0 w l A Y ` ` ` O.*.&.5.2.r.f.l.l.f.r.2.:.$.[ Y J M i w 9 9 8 5 5 4 4 < , = & O                         ",
"            = : 1 4 7 8 9 w l J H ` ` ` O.*.;.;.r.r.f.l.l.f.r.2.:.$.O.~ G M i w 0 9 8 5 4 4 3 < , * & O                         ",
"            = : 1 4 7 9 0 w l J H Y ` X.O.*.;.5.2.r.f.f.l.k.r.2.5.&.O.Y G M i 0 9 9 8 5 5 4 4 < , , $ O                         ",
"            = : 1 4 5 8 9 w l J Y ` ` X.&.*.&.6.r.r.f.f.l.k.r.2.:.&.O.Y G V i y 9 8 8 6 5 4 4 < , - & O                         ",
"            = ; 1 4 5 9 0 w d J Y ^ [ O.O.&.&.;.r.r.k.l.f.f.r.5.:.O.O.Y G B q 0 0 9 6 6 5 4 4 < , * & O                         ",
"            = < 3 4 6 9 0 0 d J G ^ [ [ O.&.<.;.6.r.f.d.f.a.r.5.5.O.O.Y G B q e 9 8 6 5 5 4 3 < , * & O                         ",
"            = , 1 4 6 9 0 w d J G ^ [ O.O.&.&.6.r.r.d.d.l.k.r.5.:.O.O.Y G M i 0 0 9 6 6 5 4 3 1 , * & O                         ",
"            = < < 4 4 8 9 0 y M H Y Y ~ ` X.X.&.=.:.8.8.d.d.:.:.O.[ ` H B M y 0 9 9 8 6 5 5 4 3 < , *                           ",
"                                                                                                                                ",
"                                                                                                                                ",
"                                                                                                                                ",
"                                                                                                                                "
};
