/* XPM */
static char *_313a3dd7aa84b17cb48447c4c2d5accrflqneTK1uHQK0uX[] = {
/* columns rows colors chars-per-pixel */
"64 64 213 2 ",
"   c None",
".  c #261700",
"X  c #271800",
"o  c #2B1B00",
"O  c #342200",
"+  c #3E2901",
"@  c #382401",
"#  c #432E01",
"$  c #463100",
"%  c #4C3600",
"&  c #4F3900",
"*  c #523B00",
"=  c #593F01",
"-  c #503705",
";  c #5D4300",
":  c #614500",
">  c #654A02",
",  c #6A4D01",
"<  c #664E09",
"1  c #6F5103",
"2  c #6E5409",
"3  c #725401",
"4  c #755901",
"5  c #7C5D01",
"6  c #755908",
"7  c #7E600A",
"8  c #7C6719",
"9  c #836100",
"0  c #8C6B01",
"q  c #876808",
"w  c #926E00",
"e  c #8F7001",
"r  c #957203",
"t  c #997503",
"y  c #9C7B01",
"u  c #9A7A0D",
"i  c #987C14",
"p  c #A47D01",
"a  c #857121",
"s  c #A78103",
"d  c #AB8402",
"f  c #AD8902",
"g  c #A9870E",
"h  c #B38C01",
"j  c #B28C09",
"k  c #B98F05",
"l  c #B79102",
"z  c #BD9301",
"x  c #BD940A",
"c  c #BF9A0D",
"v  c #A98B18",
"b  c #BC9B19",
"n  c #B79414",
"m  c #98872E",
"M  c #AB9C3A",
"N  c #BFA223",
"B  c #BCA736",
"V  c #C19501",
"C  c #CA9501",
"Z  c #C59A05",
"A  c #CC9B02",
"S  c #C49C0B",
"D  c #CC9F0A",
"F  c #D19D03",
"G  c #D19F0A",
"H  c #C09F11",
"J  c #CDA205",
"K  c #CCA20A",
"L  c #D4A304",
"P  c #D8A707",
"I  c #DBAA06",
"U  c #D2A60A",
"Y  c #D6AB0B",
"T  c #DCAC0A",
"R  c #DAA70A",
"E  c #DEB10C",
"W  c #CAA313",
"Q  c #C5A41C",
"!  c #D4AB12",
"~  c #D6AF19",
"^  c #D8AB12",
"/  c #DDB214",
"(  c #DDB41B",
")  c #DEB81E",
"_  c #E2AF04",
"`  c #E1AE09",
"'  c #E6B305",
"]  c #E9B606",
"[  c #E4B40B",
"{  c #E9B70B",
"}  c #EAB90E",
"|  c #E6B90E",
" . c #F1BF0F",
".. c #E2B513",
"X. c #E5BA13",
"o. c #ECBD11",
"O. c #E0B519",
"+. c #E3BA1C",
"@. c #E9BE1C",
"#. c #F0BF11",
"$. c #C6AB27",
"%. c #CCB12C",
"&. c #D5B523",
"*. c #DBBE2C",
"=. c #DEB925",
"-. c #D0B230",
";. c #E4BC22",
":. c #E6BF2C",
">. c #EEC014",
",. c #EDC21B",
"<. c #EFCD1E",
"1. c #F2C415",
"2. c #F7CB14",
"3. c #FACC16",
"4. c #F3C61A",
"5. c #F6C91A",
"6. c #FACD1D",
"7. c #F7D219",
"8. c #FCD11F",
"9. c #D5C03E",
"0. c #ECC324",
"q. c #E6C32C",
"w. c #EBC42B",
"e. c #EBC728",
"r. c #F5CB23",
"t. c #FACE21",
"y. c #F3CB2B",
"u. c #F1C728",
"i. c #FED323",
"p. c #FEDA24",
"a. c #F6D32D",
"s. c #FED52B",
"d. c #FEDA2C",
"f. c #F7D826",
"g. c #EDC632",
"h. c #ECCD32",
"j. c #EDCD3C",
"k. c #E6C83C",
"l. c #F3CB33",
"z. c #F4CC3D",
"x. c #EBD13C",
"c. c #F6D531",
"v. c #F7DA35",
"b. c #FFDC34",
"n. c #F6DC3B",
"m. c #FFDE3A",
"M. c #F6D33B",
"N. c #FEE32C",
"B. c #FFE82F",
"V. c #FDE334",
"C. c #FFE834",
"Z. c #FFE23C",
"A. c #FFE83A",
"S. c #CDBB40",
"D. c #D0BF47",
"F. c #CBC151",
"G. c #D3C54E",
"H. c #E8C94C",
"J. c #F0CC40",
"K. c #EDDB4B",
"L. c #F6DD42",
"P. c #F9DC45",
"I. c #F4D645",
"U. c #E8D656",
"Y. c #F8DF5C",
"T. c #F5D65A",
"R. c #FFE543",
"E. c #FFE945",
"W. c #FFE64A",
"Q. c #FFE94B",
"!. c #F5E149",
"~. c #EFE55D",
"^. c #FEE553",
"/. c #FEEC54",
"(. c #FDED5C",
"). c #FCE65A",
"_. c #E4DC62",
"`. c #F6DD61",
"'. c #F5D96A",
"]. c #F7DF7B",
"[. c #EEE563",
"{. c #E9E368",
"}. c #FDEE63",
"|. c #F1EB69",
" X c #FEEB6C",
".X c #F8E867",
"XX c #FCF065",
"oX c #FAF26C",
"OX c #F7F16D",
"+X c #FFEE74",
"@X c #FAE47B",
"#X c #FFEF7C",
"$X c #F9F571",
"%X c #FEEF8A",
"&X c #FBE684",
"*X c #FFF187",
"=X c #FFF18C",
"-X c #FCEB95",
";X c #FFF294",
":X c #FEF39F",
">X c #FBEFAF",
",X c #FFF4AB",
"<X c #FDF2A7",
"1X c #FEF4B4",
"2X c #FFF7BD",
"3X c #FFF9C4",
"4X c LemonChiffon",
"5X c #FEF5C5",
"6X c #FFFAD4",
"7X c #FFFCDF",
"8X c #FFFEEC",
"9X c #FFFCE5",
"0X c #FFFFF3",
/* pixels */
"                                                                                                                                ",
"                                                                                                                                ",
"                                                                                                                                ",
"                                                                                                                                ",
"                                                C.A.E.Q./.(.}.+X=X'.H.^ L L L                                                   ",
"                                            V.A.E.E.E.E.Q.Q.Q.Q.Q. X;X1X'.] ' ' _ _                                             ",
"                                        p.V.A.R.R.R.E.E.E.E.E.Q.Q.Q.^.}.,X1Xz.{ ' ' ' _                                         ",
"                                      d.m.Z.Z.Z.Z.A.A.R.E.E.E.Q.Q.Q.Q.Q.Q.=X7X'. . .{ { ]                                       ",
"                                    d.b.b.V.V.Z.V.Z.A.R.R.E.E.E.E.E.Q.Q.Q.Q.$X8X].#. .} { { `                                   ",
"                                  s.b.b.b.b.b.m.m.Z.Z.A.A.A.A.!.E.E.E.E.E.Q.Q.+X8X'.1. . .o.} {                                 ",
"                                i.d.d.b.b.V.b.v.$.i q r r v H q.A.R.E.E.E.Q.Q.Q.+X0XT.#.#.#.o.o.}                               ",
"                              4.d.d.d.b.d.a.n 5 < m F.{.|.[.U.G.i N R.R.R.E.E.E.Q.=X0Xz.#.#.#.#.} /                             ",
"                            4.s.d.d.d.d.=.q 6 M {.$X$X$X$X$X$X$X$XF.v J.Q.E.E.Q.Q.E.3X4X4.1.#.#.o.o.                            ",
"                            i.s.s.d.s.b > 8 _.$X$X$X$X$X$X$X$X$X$X$X$XB *.E.R.E.E.E.^.8X&X5.4.1.1.o.o.                          ",
"                          r.i.i.d.i.b ; 8 |.oXoXoX$X$X$X$X$X$X$X$X$X$X$XF.*.A.R.R.E.E.=X9XM.r.4.1.,.o...                        ",
"                          i.i.i.p.) , 8 ~.oXoXoXoX$XoXOX|.[.[.$X$X$X$X$X$XG.q.R.R.R.R.E.4X-Xr.u.,.,.,.o.                        ",
"                        4.i.i.i.r.4 2 K.(.(.XXXX(.i > 3 0 r u 9.$X$X$X$X$X$X%.n.R.R.R.R.+X6XI.y.u.0.0.,.O.                      ",
"                        6.i.i.i.j , $.W.!.Q././.(.Q 3 1 &.V.C.K.$XoX$X$X$X$X$X%.Z.Z.R.R.R.2X].l.y.u.0.,.,.                      ",
"                      ,.i.i.8.+.9 i b.V.V.!.!.E.(.q.J A V.A.A.!. XOX$X$X$X$X$X[.h.A.R.R.R.#X2Xl.l.u.w.;.,.O.                    ",
"                      6.6.i.6.j 5 e.d.d.b.V.Z.A./.h.L J V.A.A.!.}.oXoXOXOX$XoX$X-.Z.Z.m.R.W.1XT.g.u.0.@.+.+.                    ",
"                      t.6.t.4.t g i.i.d.d.b.b.V.).e.L A B.A.A.K.XXXXXXoXXXoXoX$X|.h.Z.A.R.Z.;X].g.w.;.;.+...                    ",
"                    ,.t.6.t.S 9 +.i.i.i.s.d.d.b.Q.q.L J N.C.A.L.(.}.}.XXXXXXOXXXoXk.m.Z.Z.Z.+X:Xg.g.:.;.+.O.~                   ",
"                    4.i.i.t.h t i.8.i.i.i.p.d.b.^.0.J z N.C.C.L./.(.(.(.XXXXXXXXXXK.m.m.m.Z.Z.:Xk.:.;.;.( / Y                   ",
"                    t.t.i.1.d n 8.8.i.i.i.i.d.d./.,.J J v.C.C.Z./././.(.(.(.}.}.XXXXq.m.m.V.m.*XH.;.~ ^ Y U J                   ",
"                    i.i.i...p +.8.8.8.8.i.i.i.d.^.+.L A d.C.C.n.Q.Q./././.(.(.(.(.XXx.b.b.V.m. XU.~ ! Y J J Z                   ",
"                    s.i.i.` p 6.i.i.8.i.i.i.i.i.^.O.J A N.B.C.v.E.Q.Q.^./././.(.(.(.x.V.b.m.m.).[.~ W K J Z Z l                 ",
"                  0.i.s.s.' z i.i.i.i.i.i.p.s.i.Q./ J A N.V.B.c.R.R.W.W.Q./././.)./.!.b.b.m.b.W.}.Z z z l l h f                 ",
"                  0.s.s.s.{ K 8.i.i.d.i.i.d.i.s.Q.E J A f.B.B.a.V.R.R.R.Q.Q./.Q./.Q./.e.b.b.b.V.(.c z l l l h d                 ",
"                  r.i.s.t.o...i.i.i.i.i.i.s.d.b.W.Y J A f.B.B.f.m.Z.P.R.R.R.W.W.W.W.Q.a.b.d.b.b.W.c h f f f d d                 ",
"                  t.s.t.s.1.1.6.i.i.i.i.i.d.s.d.E.Y J A f.B.B.a.b.b.m.Z.R.R.W.W.W.W.W.l.b.b.b.b.a.S d d p p y t                 ",
"                  t.i.s.s.r.1.6.8.6.8.i.i.i.s.d.R.Y A A p.N.N.c.V.m.m.m.m.R.R.R.R.R.R.a.b.b.b.b.<.j t t r w w 0                 ",
"                  r.t.t.b.c.3.6.6.6.6.6.i.i.i.s.V.Y Z Z f.B.N.f.m.R.R.m.m.Z.Z.P.P.R.R.a.b.b.b.b.X.s 9 9 9 5 5 5                 ",
"                  5.6.6.m.P.6.1.1.1.2.2.6.6.8.i.b.K Z V p.N.N.a.P.Z.P.m.Z.m.m.P.m.P.Z.a.b.b.b.b.E r , , > > > >                 ",
"                  4.1.6.M./.8.o. . .1.1.1.3.6.8.b.L V V p.N.N.a.m.m.m.m.Z.m.m.m.R.m.Z.c.b.m.m.b.U 4 & % & - & $                 ",
"                  >.2.5.c. Xi.o.} } >.>.1.1.1.6.d.K V V f.p.N.a.m.m.m.m.m.P.V.m.Z.m.P.s.m.b.V.b.z , & % & $ & &                 ",
"                  X.1.1.y.#Xs.o.} } } } } } 1.1.s.Z l z p.N.N.a.s.b.b.m.m.m.V.P.m.m.P.a.b.m.m.b.f ; % % $ & $ &                 ",
"                  ( 1.1.4.%Xm.o.} { { } } } o.1.t.Z z V f.N.p.r.s.s.s.b.b.m.m.m.m.m.m.s.b.b.m.c.p $ # # # # $ $                 ",
"                  ..>.o.1.*X).o.[ { [ { } } } o.6.Z z z p.p.p.4.t.t.s.s.s.s.b.m.m.m.c.s.b.m.b.w.0 O O O @ @ @ @                 ",
"                    >.o.1.@X#X@.` ` _ [ { { } } 1.Z k V f.p.p.>.5.5.6.t.t.s.s.s.m.b.s.b.b.b.b.&.3 o o o o o . o                 ",
"                    o.>.>.`.;Xy.R T I T ` ` [ { 1.Z k V p.p.p.>.1.4.5.5.t.r.s.s.s.s.s.s.b.b.m.n : X . X . . .                   ",
"                    o.o.o.y.1XI.` P R P R R _ ` #.C l z i.p.p.>.1.1.1.4.5.5.6.t.i.s.i.s.b.s.b.u * o o o o o o                   ",
"                    / o.o.>.,X#X..F P R P P R ` o.S k V 8.p.i.o.o.#.o.1.1.4.5.5.6.t.i.s.s.s.s.6 ; * & & % % $                   ",
"                    T o.o.o.].,Xu.G F L F P L P } S k V 8.p.p.X.o.o.o.1.1.1.1.4.6.6.i.i.s.s.~ : * & & & & & -                   ",
"                      o.o.o.,.4XY.T F F F F F L ` C h V 7.p.p.o.{ } o.o.o.1.1.4.1.3.t.i.t.i.i * % & & & % %                     ",
"                      ..} o.o.&X<Xw.F A F F F F T S h z 8.8.p.| { [ X.o.o.o.o.1.2.3.6.6.t.t., - % % % % & %                     ",
"                      D } o.o.;.6X.X^ A F C F C [ T V V 8.p.p.| E [ [ { X.o.o.1.3.6.5.6.6.W $ - & & & & * *                     ",
"                        T o.} o.].3Xl.F F C C C O.Y.I.P.C.A.Z.+.T E [ { } X.o.2.4.5.5.3.6.6 $ * * * ; ; =                       ",
"                        U } } o.o.>X%X@.C C C C ~ <X X(.^.R.P.o.P T E ' [ { 1.2.5.5.5.5./ # * = ; = ; ; >                       ",
"                          [ } } } :.5X.XX.C C C C C C U ^ ( ;.L U I I E [ } 6.4.4.5.4.5.q + = = ; ; : :                         ",
"                          S } } } } z.5X)...C C C C C C C F F F L P I T | 7.1.1.1.5.4.W o - ; ; ; ; : :                         ",
"                            T } } } } j.2X X+.C C C C C C F C F L L P >.7.1.1.1.1.5.o.; # ; ; ; ; : :                           ",
"                              } } } } } w.-X%XM.R C C C C F C F A T <.5.1.1.1.4.1.1.u o = : : : : :                             ",
"                              U { } } } } } T.%X Xz...F F F G ~ e.f.<.>.#.1.>.1.1.^ o & : : : ; : >                             ",
"                                Y } } } } } } o.I.Y..X X).^.W.a.1.>.>.>.1.o.1.o...# + : ; : : : :                               ",
"                                  U { } X.} X.} } } } o.o.o.} o.>.>.>.} o.1.1...= O = : : : : :                                 ",
"                                    J { [ } { { } } } } o.o.o.o.>.} >.>.o.o.! ; O ; : : : : >                                   ",
"                                      S } { { o.} } } } } } } o.] >.>.| >.c + + > , , 3 3 ,                                     ",
"                                        s P { } [ } } } } } } } | | >.E q + ; 4 4 5 5 7                                         ",
"                                            f D } [ } } } } } } } Y t ; & 4 0 0 e e                                             ",
"                                                w s j x j x j t 7 1 4 0 s y s                                                   ",
"                                                        - ; <                                                                   ",
"                                                                                                                                ",
"                                                                                                                                ",
"                                                                                                                                "
};
