/* XPM */
static char *_895ae5d8f3f42c7d6d95730203486daZlC2SusNpAr6a4VQ[] = {
/* columns rows colors chars-per-pixel */
"64 64 144 2 ",
"   c None",
".  c #2A2109",
"X  c #32270D",
"o  c #3E310F",
"O  c #3B2D12",
"+  c #461F07",
"@  c #621D04",
"#  c #4C3A1B",
"$  c #473813",
"%  c #7F2704",
"&  c #68340C",
"*  c #524114",
"=  c #594618",
"-  c #53411D",
";  c #644F1E",
":  c #7C4312",
">  c #66501D",
",  c #5B4722",
"<  c #7B4125",
"1  c #6C5422",
"2  c #735B29",
"3  c #7A5F29",
"4  c #725925",
"5  c #7B6121",
"6  c #7C6132",
"7  c #9B1A00",
"8  c #842B07",
"9  c #872E08",
"0  c #882F09",
"q  c #8D330B",
"w  c #90360D",
"e  c #943A0F",
"r  c #9C3E13",
"t  c #D52E01",
"y  c #D73002",
"u  c #DC3504",
"i  c #DF3806",
"p  c #E23A07",
"a  c #E53D08",
"s  c #E83F0A",
"d  c #9D5E1E",
"f  c #AB4B13",
"g  c #B14F15",
"h  c #A6521E",
"j  c #B45216",
"k  c #B75418",
"l  c #B95619",
"z  c #BD591B",
"x  c #924E29",
"c  c #BB5722",
"v  c #816625",
"b  c #866A26",
"n  c #8A6D29",
"m  c #8F712B",
"M  c #94742E",
"N  c #8C6D3B",
"B  c #986030",
"V  c #987730",
"C  c #9B7A31",
"Z  c #91733B",
"A  c #987639",
"S  c #B4702A",
"D  c #A17F35",
"F  c #BF7830",
"G  c #BE753E",
"H  c #C05B1C",
"J  c #EC430C",
"K  c #F1470E",
"L  c #F3480F",
"P  c #F54B10",
"I  c #F94E12",
"U  c #FD5114",
"Y  c #E85E25",
"T  c #CC6523",
"R  c #CF6824",
"E  c #D26A26",
"W  c #D76E2B",
"Q  c #D97234",
"!  c #F1672C",
"~  c #F86F33",
"^  c #E57937",
"/  c #E17A3B",
"(  c #FD7538",
")  c #996848",
"_  c #88795B",
"`  c #CD6141",
"'  c #FD7C4B",
"]  c #A58136",
"[  c #AB8639",
"{  c #AE883B",
"}  c #B28B3D",
"|  c #EB803F",
" . c #AC8842",
".. c #A58246",
"X. c #B68D49",
"o. c #B99346",
"O. c #BB954B",
"+. c #BD984F",
"@. c #BF9B51",
"#. c #BA9F74",
"$. c #D78343",
"%. c #C0964C",
"&. c #C19B53",
"*. c #ED8242",
"=. c #F48B4C",
"-. c #F78F52",
";. c #FA9255",
":. c #FC965B",
">. c #FE995E",
",. c #C6A25B",
"<. c #CEA25B",
"1. c #CEAA65",
"2. c #D1AE6A",
"3. c #D4B16E",
"4. c #DDB469",
"5. c #CBAC73",
"6. c #D6B371",
"7. c #D8B675",
"8. c #E1BB74",
"9. c #F9C66D",
"0. c #E5C17F",
"q. c #FAC974",
"w. c #FACC7B",
"e. c #D6BB86",
"r. c #FFA983",
"t. c #FDA789",
"y. c #DFC392",
"u. c #E6C285",
"i. c #E9C78A",
"p. c #FBCF82",
"a. c #FBD185",
"s. c #FCD38C",
"d. c #E6C999",
"f. c #FDD694",
"g. c #FDDA9C",
"h. c #E6CFAA",
"j. c #E6D0AD",
"k. c #FEDDA4",
"l. c #FEDFA9",
"z. c #FFE1AC",
"x. c #FFE2B0",
"c. c #FEEED1",
"v. c #FFF0D7",
"b. c white",
/* pixels */
"                                                                                                                                ",
"                                                                                                                                ",
"                                                                                                                                ",
"                                  . . . . . . . . . . . . . . . . . . . . . . . . . . .                                         ",
"                                . . . . . . . . . . . . . . . . . . . . . . . . . . . . .                                       ",
"                                . . % 8 8 8 9 9 9 q q 9 9 q q q q w q q w w x < @ @ + . .                                       ",
"                              . . . u u i i p a p a J s J J J K K P L P P P ' ` 7 7 @ . . . . . . . . . .                       ",
"                          . . . . . u u u i p p a s s s J J J J K K K P L P ' ` 7 7 @ . . . . . . . . . . . .                   ",
"                        . . . . . . u u u i p a p a s s J J J K K K K P P P ' ` 7 7 @ . . . . . . . . . . . .                   ",
"                        . . % t y y u u u i p p a s s s J J J K J P K P P P P I I I U I U U U U U r.7 7 7 . . .                 ",
"                        . . % t y u u u u i p p a s s J J J K J K K L P P P P P I I I U U U U U U r.7 7 7 . . .                 ",
"                        . . % t y y y u i i p p p a s J J J J K K L L L P P I P I I U I U U U U U r.7 7 7 . . .                 ",
"                        . . & f f f f g j j j k k k z z Q -.-.=.-.-.-./ T T R :.:.:.t.^ ^ ^ e e e ) @ @ @ . .                   ",
"                      . . . # 5 5 5 v b v b b b n m m M ,.s.s.f.f.f.f.1.D D D g.k.k.b.<.<.<.. . . . . . . . .                   ",
"                  . . . . . * 5 5 v v v b b n n n m m M ,.s.f.s.f.f.g.1.D D D k.k.k.b.<.<.<.. . . . . . . . .                   ",
"                  . . . . . * 5 5 5 v v b b b n n n n M ,.s.s.f.f.f.f.1.D D D k.g.k.b.<.<.<.. . . . . . . . .                   ",
"                . . . 5 5 5 5 5 5 5 q.w.w.@.b n n a.a.s.s.s.s.f.f.f.f.1.C ] ] k.k.k.k.k.k.k.z.z.z.b.<.<.<.. . .                 ",
"                . . . 5 5 5 5 5 5 5 w.w.w.,.b n n s.s.s.s.s.s.f.f.f.g.1.] ] ] g.g.k.k.k.z.k.z.z.z.b.<.<.<.. . . . .             ",
"                . . . 5 5 5 5 5 5 v 9.w.w.&.b n n a.p.s.s.s.s.f.f.f.f.1.C ] ] g.k.k.k.k.k.z.z.k.z.b.<.<.<.. . . . . .           ",
"                . . . 5 5 > 5 5 5 v q.w.w.&.b n m &.,.,.7.s.s.f.f.f.f.0.1.1.1.3.2.3.i.k.k.l.z.l.z.v.u.u.d._ 6 6 - . .           ",
"                . . . 5 5 5 5 5 5 v w.w.w.@.b n n m m M ,.s.s.f.f.f.f.g.g.g.g.] ] ] 3.z.k.z.z.z.z.z.x.x.v.j.<.<.6 . .           ",
"                . . . 5 5 5 5 5 5 5 w.w.w.,.b n n n m M ,.s.s.f.f.f.f.g.g.g.g.] ] [ 3.k.l.k.z.l.z.x.z.x.v.j.<.<.6 . .           ",
"                . . . 5 5 5 5 5 5 v w.w.w.&.b n n m n M ,.f.s.f.f.f.f.g.f.g.g.] ] ] 3.z.k.z.z.k.z.x.x.x.v.j.<.<.6 . .           ",
"                . . . > 5 5 5 5 5 5 v 5 n @.w.a.p.a.s.s.s.s.s.f.f.f.f.1.C ] ] ] ] [ [ [ [ { { } } <.# # # . . . . . .           ",
"                . . . 5 5 5 5 5 5 5 v v v &.w.p.a.a.a.s.s.f.s.s.f.f.f.1.] ] ] ] ] [ [ [ [ { } } } <.# # # . . . . .             ",
"                . . . 5 5 5 5 5 v v v b b &.a.p.a.a.a.s.s.s.f.f.f.f.f.1.] C ] ] ] [ [ [ [ { { } } <.# # # . . .                 ",
"                  . . * * * # * * * @.@.&.4.w.a.a.a.s.s.s.s.s.f.f.f.g.0.2.2.1.2.2.3.3.6.3.e.5.%.%...O O O . .                   ",
"                  . . . . . . . . . w.w.w.p.p.p.p.a.a.a.s.s.s.f.f.f.f.g.g.g.g.g.k.k.k.k.z.c.h.<.<.6 . . . . .                   ",
"                    . . . . . . . . w.w.w.w.a.p.a.a.s.s.s.s.s.f.f.f.f.g.g.g.g.k.g.k.k.k.k.c.j.<.<.6 . . . .                     ",
"                        . . . . . . w.w.w.a.w.p.p.s.p.s.s.s.s.f.f.f.f.g.f.g.g.g.k.k.k.k.k.c.j.<.<.6 . .                         ",
"                        . . * 5 5 v v v b b b b n s J J z M V V C C C C ] A X.N # # O . . . . . . . . .                         ",
"                    . . . . * 5 5 5 v v b b n n n J s J H M V V V C C C ] ]  .N # # O . . . . . . . . . . .                     ",
"                  . . . . . $ 5 5 b b 5 b b n b b J J J H M V V C C C ] ] ]  .N # # O . . . . . . . . . . . .                   ",
"                  . . * $ * > 5 5 5 5 b b b b n n i J J H M M V V C C S T T W Z 5 5 2 1 1 1 1 1 4 6 O O O . .                   ",
"                . . . 5 5 5 5 5 5 5 5 b v b b n n J J J H M V V V C C T I I U ] ] [ [ [ [ { { } } <.# # # . . .                 ",
"            . . . . . 5 5 5 5 5 5 b b 5 b b b n b J J K H M M V C C C T P I I ] ] [ [ [ { { { { } <.# # # . . . . .             ",
"          . . . . . . 5 5 5 5 5 5 b 5 n b b b n n J J J z M M M C C C T I I I ] [ ] [ [ { { { } } <.# # # . . . . . .           ",
"          . . * 5 5 5 5 5 5 5 5 5 5 b 5 v b b n n J J J J J P K L L L P I I I ] ] ] [ [ [ { { } } } } } %.Z # # O . .           ",
"          . . * 5 5 5 5 5 5 5 5 5 b 5 b b b n b n i i J J K K K L L P I I I I ] ] [ [ [ { { { } } } } } %.N # # O . .           ",
"          . . $ 5 4 5 5 5 5 5 5 5 5 5 b b b b n n J J J J K K K L P P P P I I ] ] [ [ [ [ { { { } }  .} %.N # # O . .           ",
"          . . 2 } o.o.o.o.o.o.O.@.@.v v b d k k j *.=.=.! J K P L L P ~ ;.;.;.R R E F [ { { 4.6.7.7.7.7.d.#.N N , . .           ",
"          . . Z 9.9.9.9.9.9.9.q.q.w.v v v j p s J s.s.s.=.J J K L P P ;.g.g.g.U U U E [ [ { z.z.z.z.x.x.v.j.<.<.6 . .           ",
"          . . Z 9.9.9.9.9.9.q.q.w.w.5 v v j p p i a.a.s.=.J K K P L P ;.g.g.g.I U U E { { { z.z.x.z.z.x.v.j.<.<.6 . .           ",
"          . . Z 9.9.9.9.9.9.q.q.q.q.v v b j p s J a.a.a.=.K K P P P P ;.g.g.g.U U U E [ [ [ k.k.z.x.z.z.v.j.<.<.6 . .           ",
"          . . Z 9.9.9.9.9.9.9.q.q.w.q.w.w.*.p s J i J J J K K K P P P I P I I I U U :.z.z.z.z.z.z.z.x.x.v.j.<.<.6 . .           ",
"          . . Z 9.9.9.9.9.9.q.q.q.q.w.w.w.*.p p i J J J J J K K J P L I I I I U U U ;.k.g.z.z.z.z.x.x.x.v.j.<.<.6 . .           ",
"          . . Z 9.9.9.9.9.9.9.q.q.q.w.w.w.*.p s i J J J J K K K P P P P I I I I I U :.z.z.z.z.z.z.x.x.x.v.j.<.<.6 . .           ",
"          . . Z 9.9.9.9.9.q.q.q.q.w.| *.*.Y p p J J J J J J K K K P P L P I I U U U ( >.;.>.z.z.z.z.z.x.v.j.<.<.6 . .           ",
"          . . Z 9.9.9.9.9.9.q.q.q.q.y u p p p a s s s J J K K K L P P P I I I I U U U U U U l.l.z.z.x.x.v.j.<.<.6 . .           ",
"          . . Z 9.9.9.9.9.9.9.q.q.w.u u u p p a a s s J J J K K L P P I I I U I U U U U U U l.l.z.x.x.x.v.j.<.<.6 . .           ",
"          . . Z 9.9.9.9.9.9.q.q.w.w.u u p p p p s s J J J K J K L P P P I I I U U U U U U U l.l.z.z.x.x.v.j.<.<.6 . .           ",
"          . . . . . . . . . % t y y u i u p p a s s s J r.7 7 7 L P P P P I I I U U U U U -.` 7 7 @ . . . . . . . . .           ",
"            . . . . . . . . % t y u u u i p p a s s J J t.7 7 7 L L P P I I I I I U U U U =.` 7 7 @ . . . . . . . .             ",
"                . . . . . . 8 t y y u u i i p a a s J i r.7 7 7 L P P P P I I I U U U U U ' ` 7 7 @ . . . . . .                 ",
"                  . . * $ $ : f g g g g g k k k T c e f ) @ @ @ q w w g T R E E R W W W W $.G h h B O O O . .                   ",
"                . . . 5 5 5 5 5 5 5 5 v v b b n  .) # # O . . . . . . ; D D D D D D [ [ [ { { } } <.# # # . . .                 ",
"            . . . . . 5 5 5 5 5 5 b v b b b b n  .N # # O . . . . . . ; D D ] ] ] [ [ [ { { { } } <.# # # . . . . .             ",
"          . . . . . . 5 5 4 5 5 5 5 5 b b b b n  .N # # O . .     . . ; D D D ] ] [ [ [ [ { { } } <.# # # . . . . . .           ",
"          . . * 5 5 5 5 5 5 5 5 5 v 5 v v b b b  .N # # O . .     . . ; C ] ] ] [ ] [ { { { { } } } } o.%.N # # O . .           ",
"          . . * 5 5 5 5 5 5 5 5 5 5 b b b b n n  .N # # O . .     . . ; ] D D ] ] ] [ [ [ { { } } } } } %.N # # O . .           ",
"          . . * 5 5 5 5 5 5 5 5 5 v v 5 v b n n  .N # # O . .     . . ; C D ] ] ] [ [ [ { { } } } } } } %.N # # O . .           ",
"          . . o * * $ * $ $ * * * * = = = = = = 1 , O O X . .     . . $ 1 ; ; 1 1 > > 1 1 1 1 1 1 1 1 4 2 , O O X . .           ",
"          . . . . . . . . . . . . . . . . . . . . . . . . . .     . . . . . . . . . . . . . . . . . . . . . . . . . .           ",
"            . . . . . . . . . . . . . . . . . . . . . . . .         . . . . . . . . . . . . . . . . . . . . . . . .             "
};
